<?xml version="1.0" standalone="no"?>
<!DOCTYPE svg PUBLIC "-//W3C//DTD SVG 20010904//EN"
 "http://www.w3.org/TR/2001/REC-SVG-20010904/DTD/svg10.dtd">
<svg version="1.0" xmlns="http://www.w3.org/2000/svg"
 width="900.000000pt" height="600.000000pt" viewBox="0 0 900.000000 600.000000"
 preserveAspectRatio="xMidYMid meet">
<metadata>
Created by potrace 1.16, written by Peter Selinger 2001-2019
</metadata>
<g transform="translate(0.000000,600.000000) scale(0.100000,-0.100000)"
fill="#000000" stroke="none">
<path d="M1524 5977 l-27 -24 12 -119 c88 -880 523 -1823 1218 -2642 109 -128
417 -443 561 -573 l93 -84 20 -535 c11 -294 24 -551 29 -571 9 -33 18 -40 127
-93 128 -63 588 -276 1051 -486 254 -116 297 -132 320 -124 46 16 48 41 25
342 -11 152 -19 278 -18 279 1 2 19 -43 40 -100 56 -147 175 -428 225 -527 97
-194 272 -400 425 -502 91 -60 110 -66 128 -36 29 46 51 160 51 273 l1 110
-47 80 c-26 44 -45 81 -43 83 6 6 44 -23 295 -218 374 -291 658 -469 798 -501
77 -18 86 -7 79 97 -10 134 -51 257 -179 538 -82 180 -111 258 -116 313 -4 45
-2 52 18 63 34 18 74 8 320 -81 291 -104 412 -139 487 -139 92 0 104 26 52
119 -52 92 -159 212 -440 491 -147 146 -270 276 -274 289 -5 16 -2 28 9 40 23
22 207 19 389 -8 182 -28 270 -28 297 -1 11 11 20 29 20 40 0 38 -42 130 -86
191 -149 202 -560 509 -1137 852 l-139 82 33 10 c24 6 139 -2 424 -30 214 -21
407 -39 428 -38 42 1 66 23 67 60 0 21 -100 261 -397 953 -187 435 -237 538
-265 545 -13 3 -268 16 -567 29 l-544 25 -121 118 c-148 146 -235 222 -391
343 -483 373 -1073 667 -1710 850 -431 124 -864 201 -1290 230 -213 14 -220
14 -251 -13z m376 -128 c573 -49 1184 -198 1706 -415 962 -400 1703 -1042
2186 -1894 85 -150 161 -300 213 -426 l42 -101 -66 -33 c-96 -47 -212 -125
-335 -224 l-107 -87 -112 100 c-62 54 -317 282 -567 505 -474 423 -497 441
-552 415 -13 -6 -74 -85 -137 -175 -96 -141 -112 -170 -109 -197 2 -18 64
-137 138 -265 l135 -234 375 -295 c206 -163 379 -299 384 -304 4 -4 -16 -38
-46 -76 -76 -94 -154 -212 -208 -315 l-46 -88 -155 86 c-1050 583 -1860 1350
-2398 2269 -247 422 -430 875 -532 1317 -33 142 -69 362 -69 421 l0 38 68 -5
c37 -3 123 -11 192 -17z m4028 -1558 c222 -11 405 -21 407 -23 10 -10 105
-227 309 -703 252 -590 250 -584 245 -589 -3 -3 -538 49 -682 66 -26 3 -32 12
-71 108 -126 314 -404 772 -659 1088 l-58 72 53 0 c29 0 234 -9 456 -19z
m-1326 -1263 c35 -30 264 -225 511 -432 246 -208 447 -380 447 -382 0 -3 -19
-33 -43 -68 l-42 -64 -521 412 -521 411 -109 189 c-60 104 -113 197 -118 208
-7 15 4 38 55 113 l64 94 107 -213 c101 -202 110 -216 170 -268z m293 42 c729
-649 662 -586 667 -633 3 -23 4 -43 2 -45 -4 -6 -892 741 -916 771 -30 37
-111 222 -91 206 10 -8 162 -142 338 -299z m1429 -552 c243 -137 459 -279 445
-293 -2 -1 -53 -17 -113 -35 -242 -70 -332 -145 -311 -256 4 -21 37 -76 87
-141 123 -162 153 -224 112 -240 -29 -11 -137 27 -293 103 -165 79 -224 97
-234 70 -10 -26 20 -107 107 -294 94 -198 116 -256 108 -284 -11 -44 -68 -14
-352 190 -202 145 -347 240 -408 267 -63 27 -71 15 -50 -88 30 -143 32 -189
13 -291 -28 -159 -66 -174 -156 -63 -55 69 -95 149 -144 288 -37 106 -115 391
-115 420 0 17 145 224 173 247 12 10 36 -5 138 -86 68 -54 132 -102 142 -105
37 -14 64 13 156 152 l93 140 -22 153 c-21 148 -31 185 -54 201 -12 8 -13 7
123 114 l92 72 152 -76 c84 -41 224 -116 311 -165z m-2353 -434 c294 -198 505
-326 694 -422 60 -30 112 -57 115 -59 5 -4 59 -706 55 -711 -4 -4 -796 358
-1212 554 l-73 35 0 47 c0 26 -7 200 -15 387 -8 187 -15 375 -15 417 l0 77
143 -108 c79 -59 217 -157 308 -217z"/>
<path d="M3130 4837 c-205 -63 -314 -178 -356 -377 -60 -285 142 -600 449
-699 135 -43 253 -36 373 24 132 65 251 223 294 391 24 91 25 147 5 229 -31
132 -104 245 -209 322 -123 90 -216 123 -371 129 -94 4 -121 1 -185 -19z m281
-237 c193 -60 296 -224 245 -391 -20 -65 -39 -98 -80 -140 -98 -100 -247 -110
-386 -27 -112 68 -187 200 -177 313 13 134 78 219 197 256 46 14 138 9 201
-11z"/>
</g>
</svg>
