<svg version="1.1" xmlns="http://www.w3.org/2000/svg" viewBox="0 0 322.1675540092034 202.14544915751912">
  <!-- svg-source:excalidraw -->
  <defs>
    <style>
      @font-face {
        font-family: "Virgil";
        src: url("https://excalidraw.com/FG_Virgil.woff2");
      }
      @font-face {
        font-family: "Cascadia";
        src: url("https://excalidraw.com/Cascadia.woff2");
      }
    </style>
  </defs>
  <g transform="translate(10.47307216795474 10.791426533850881) rotate(0.301553949868269 150.61070483664693 90.28129804490868)"><path d="M-2.611537735428099 1.5177189852233475 C71.36555926295597 0.3333271130068956, 140.86012946944933 -0.1970180419700178, 301.8373117589568 0.17805351085267276 M-1.0893816564632453 0.6944569511681605 C102.69650507616979 1.7213123603764426, 202.1480447698701 0.5955590881110152, 300.5115935783045 0.29935929510719844 M299.3265989967192 -0.40616893768310547 C303.7843441300723 61.99419815411354, 302.08723109296295 123.60257305841019, 301.3915098853911 183.46993423221238 M300.8985589691008 -0.3263421058654785 C303.08015837254106 37.620965892910064, 305.50659575047075 72.8314574854356, 300.34974610288987 180.49038911578782 M301.31526824074194 183.25901359789242 C234.15753890185235 181.93410299506587, 165.76224083102926 180.93386734637156, -1.7817980675469034 179.04716033365645 M299.8437246691704 181.87135184515338 C235.49693762575322 184.8331595271411, 169.9465025167423 185.27918281516745, -0.8117343076037769 181.07277678947187 M3.466944694519043 181.4499452185405 C4.322636680536526 116.3420789472099, -0.8881482315728491 47.00472048837929, -3.009160041809082 0.8356218338012695 M0.5924630165100098 179.34486604449876 C-4.305626256399317 124.44731921290125, -1.7004779409696296 70.03170597505375, -0.42021703720092773 -0.296602725982666" stroke="#000000" stroke-width="1" fill="none"></path></g><g stroke-opacity="0.8" fill-opacity="0.8" transform="translate(69.57963584507695 73.35954488844621) rotate(0 92 23)"><text x="0" y="32" font-family="Virgil, Segoe UI Emoji" font-size="36px" fill="#2b8a3e" text-anchor="start" style="white-space: pre;" direction="ltr">hello world</text></g></svg>