<?xml version="1.0" standalone="no"?>
<!DOCTYPE svg PUBLIC "-//W3C//DTD SVG 20010904//EN"
 "http://www.w3.org/TR/2001/REC-SVG-20010904/DTD/svg10.dtd">
<svg version="1.0" xmlns="http://www.w3.org/2000/svg"
 width="1200.000000pt" height="1200.000000pt" viewBox="0 0 1200.000000 1200.000000"
 preserveAspectRatio="xMidYMid meet">
<metadata>
Created by potrace 1.11, written by Peter Selinger 2001-2013
</metadata>
<g transform="translate(0.000000,1200.000000) scale(0.100000,-0.100000)"
fill="#000000" stroke="none">
<path d="M2039 9973 c-19 -15 -35 -28 -37 -29 -6 -3 -5 -39 2 -104 4 -36 9
-83 11 -105 2 -22 5 -40 6 -40 1 0 2 -13 4 -30 3 -38 13 -112 20 -145 3 -14 7
-41 10 -60 3 -20 10 -60 16 -90 6 -30 12 -64 14 -75 2 -11 9 -42 15 -70 6 -27
14 -60 16 -71 2 -12 16 -66 30 -120 14 -55 27 -106 29 -114 2 -8 24 -80 48
-160 159 -507 342 -910 678 -1489 8 -14 17 -30 22 -35 4 -6 22 -33 39 -61 75
-120 241 -365 254 -376 8 -6 14 -17 14 -24 0 -8 3 -15 8 -17 4 -1 60 -73 124
-158 64 -85 125 -164 135 -175 10 -11 44 -52 75 -90 76 -94 93 -114 201 -230
121 -131 505 -515 634 -635 l103 -95 3 -146 c2 -80 6 -150 9 -155 2 -5 3 -20
1 -34 -4 -29 -4 -21 1 -135 2 -49 7 -160 10 -245 4 -85 9 -198 11 -250 3 -52
8 -149 11 -215 2 -66 7 -154 10 -195 3 -41 5 -83 5 -92 0 -27 43 -62 121 -100
127 -63 357 -172 538 -255 187 -87 301 -140 390 -181 30 -14 57 -26 60 -27 6
-2 66 -29 170 -78 41 -19 101 -46 133 -61 31 -14 81 -37 110 -50 28 -13 93
-42 142 -64 50 -22 115 -51 145 -65 30 -14 68 -29 83 -32 15 -4 30 -11 33 -16
3 -5 25 -9 49 -9 37 0 48 5 61 25 18 28 21 117 9 270 -4 50 -9 117 -11 150 -2
33 -6 96 -9 140 -3 44 -7 114 -9 155 -4 75 -4 75 11 40 9 -19 20 -45 24 -57
37 -95 42 -108 78 -193 18 -41 34 -79 35 -85 1 -5 10 -27 19 -49 9 -21 17 -40
17 -42 0 -2 9 -23 19 -47 61 -132 79 -176 73 -181 -3 -3 -1 -6 5 -6 6 0 14
-10 18 -22 9 -28 5 -19 44 -98 17 -36 40 -78 51 -95 11 -16 23 -37 27 -45 12
-26 112 -167 128 -180 8 -7 15 -16 15 -21 0 -17 175 -199 260 -271 73 -61 199
-138 226 -138 51 0 93 158 101 382 l6 147 -55 93 c-56 96 -71 128 -62 128 5 0
53 -32 79 -52 6 -5 48 -38 95 -74 47 -35 92 -70 100 -77 9 -7 33 -25 55 -41
22 -16 45 -34 50 -40 6 -6 18 -15 27 -21 8 -5 85 -62 169 -126 370 -280 731
-499 869 -526 72 -14 90 -12 104 15 7 15 12 48 11 73 -10 199 -55 341 -235
744 -132 295 -150 345 -157 435 -5 64 -4 66 22 78 14 7 35 12 46 12 27 0 166
-40 244 -71 11 -4 38 -13 60 -20 22 -7 45 -16 50 -20 6 -5 22 -10 35 -13 14
-3 84 -26 155 -51 72 -26 137 -48 145 -51 8 -2 47 -13 85 -25 176 -52 295 -64
341 -34 40 26 26 75 -53 197 -15 24 -31 45 -34 48 -3 3 -28 32 -54 64 -67 83
-111 130 -338 360 -487 493 -505 513 -487 546 6 12 21 25 33 29 22 8 293 5
357 -4 19 -3 55 -7 80 -9 68 -7 133 -17 148 -21 30 -10 220 -16 256 -8 24 5
47 19 59 35 18 24 18 31 7 77 -15 63 -70 170 -122 238 -51 67 -221 233 -323
316 -11 9 -58 46 -105 82 -47 37 -92 72 -100 78 -8 7 -31 23 -50 37 -19 13
-43 32 -53 41 -9 9 -30 22 -45 30 -15 8 -31 19 -37 25 -11 14 -437 295 -475
314 -14 7 -27 16 -30 19 -3 4 -39 27 -80 51 -41 24 -77 47 -80 50 -3 4 -12 9
-20 13 -8 4 -33 18 -55 32 -22 14 -53 32 -70 40 -16 9 -58 33 -92 53 -53 32
-60 39 -45 48 23 14 166 9 357 -12 54 -5 149 -14 212 -19 57 -4 129 -12 208
-21 28 -3 73 -8 100 -10 28 -1 75 -5 105 -8 187 -17 207 -16 234 9 16 15 26
35 26 53 0 24 -37 126 -85 237 -7 17 -30 71 -50 120 -21 50 -43 104 -51 120
-7 17 -25 59 -39 95 -15 36 -40 93 -56 128 -16 35 -29 68 -29 73 0 5 -4 17
-10 27 -8 15 -22 46 -65 147 -7 17 -19 46 -28 65 -8 19 -56 132 -107 250 -51
118 -105 243 -121 278 -16 35 -29 65 -29 67 0 10 -131 284 -165 346 -8 15 -21
31 -28 37 -15 13 -93 21 -258 27 -112 4 -230 10 -419 20 -87 4 -223 11 -450
21 -47 2 -123 5 -170 8 -47 2 -111 5 -142 5 l-56 1 -85 83 c-199 194 -286 276
-357 335 -41 35 -86 74 -100 86 -14 12 -45 37 -70 56 -25 19 -47 37 -50 40
-13 15 -307 225 -410 292 -139 91 -337 208 -350 208 -6 0 -10 3 -10 8 0 4 -10
12 -23 18 -80 39 -193 100 -195 107 -2 4 -7 7 -11 7 -5 0 -86 37 -182 83 -96
46 -237 110 -314 142 -77 31 -149 61 -160 66 -11 5 -40 16 -65 25 -25 9 -94
34 -155 56 -225 81 -624 200 -750 223 -11 2 -45 10 -75 18 -50 13 -166 39
-230 52 -14 3 -47 10 -75 16 -65 13 -82 17 -129 23 -21 4 -41 8 -45 10 -3 2
-28 6 -56 10 -27 3 -61 8 -75 12 -14 3 -38 7 -55 9 -16 1 -48 6 -70 9 -62 10
-95 14 -160 21 -33 3 -76 8 -95 11 -19 4 -51 8 -70 9 -19 2 -69 6 -110 9 -132
12 -172 15 -311 21 l-137 5 -33 -27z m296 -158 c28 -3 82 -7 121 -10 39 -2 84
-6 100 -9 16 -2 65 -7 109 -11 44 -4 89 -9 100 -11 11 -3 43 -6 70 -9 53 -4
96 -10 185 -25 30 -6 69 -12 85 -14 17 -3 41 -7 55 -10 14 -4 48 -9 75 -12 28
-4 54 -8 58 -11 4 -3 24 -7 45 -9 20 -3 53 -9 72 -14 19 -5 51 -12 70 -15 19
-3 51 -10 70 -15 19 -5 46 -11 60 -14 14 -3 79 -19 145 -36 66 -17 131 -33
145 -35 14 -3 32 -8 40 -12 8 -3 23 -8 33 -10 37 -7 451 -138 482 -153 11 -5
40 -16 65 -24 307 -99 865 -367 1198 -574 46 -29 88 -52 93 -52 5 0 9 -4 9
-10 0 -5 7 -10 15 -10 8 0 15 -4 15 -8 0 -5 12 -15 28 -23 29 -15 264 -177
272 -188 3 -4 19 -15 35 -25 17 -11 37 -25 45 -33 8 -7 53 -43 100 -80 47 -37
90 -72 96 -78 6 -5 32 -28 59 -50 187 -155 494 -467 660 -670 157 -191 391
-515 449 -620 22 -41 40 -69 47 -75 3 -3 19 -30 36 -60 17 -30 52 -93 78 -140
46 -81 186 -357 219 -430 50 -112 85 -204 80 -212 -3 -4 -35 -23 -72 -41 -37
-18 -80 -41 -97 -51 -52 -33 -198 -128 -209 -137 -6 -5 -56 -44 -111 -86 -55
-43 -104 -81 -110 -85 -5 -5 -23 -20 -39 -34 -31 -27 -31 -27 -87 26 -9 8 -47
42 -84 75 -90 78 -139 121 -189 167 -79 71 -93 83 -161 143 -37 33 -80 71 -95
85 -53 49 -106 96 -185 165 -44 39 -90 80 -103 92 -63 57 -84 75 -172 154 -52
47 -106 95 -120 106 -14 12 -34 30 -46 40 -12 10 -50 43 -85 75 -35 31 -84 73
-109 93 -25 20 -53 43 -62 50 -75 61 -134 83 -170 64 -23 -12 -108 -120 -189
-239 -35 -52 -67 -97 -70 -100 -16 -14 -69 -121 -71 -142 -2 -24 70 -175 139
-293 19 -33 43 -73 52 -90 9 -16 51 -91 94 -165 83 -142 75 -134 251 -269 39
-30 73 -58 74 -63 2 -4 8 -6 13 -2 5 3 9 1 9 -4 0 -5 46 -44 103 -87 56 -44
104 -82 107 -85 3 -3 66 -53 140 -111 74 -59 187 -148 250 -199 63 -50 122
-95 130 -100 12 -7 12 -13 2 -35 -11 -23 -95 -140 -112 -155 -27 -24 -170
-253 -225 -360 -21 -41 -43 -80 -47 -87 -6 -8 -31 1 -86 32 -42 23 -99 55
-127 70 -243 135 -400 231 -660 404 -121 80 -224 148 -229 150 -5 2 -16 10
-25 18 -40 34 -121 93 -130 93 -5 0 -11 3 -13 8 -1 4 -32 29 -68 57 -36 27
-66 53 -68 57 -2 5 -10 8 -17 8 -7 0 -15 3 -17 8 -3 7 -29 29 -98 82 -36 28
-159 129 -176 146 -6 5 -31 26 -54 45 -23 18 -55 45 -70 59 -15 14 -69 63
-121 110 -176 159 -521 512 -635 650 -16 19 -36 42 -44 50 -32 34 -69 79 -165
200 -55 69 -103 127 -107 128 -5 2 -8 8 -8 14 0 5 -7 16 -15 25 -9 8 -34 43
-57 77 -40 58 -50 71 -73 99 -12 13 -124 178 -140 205 -5 9 -26 42 -46 72 -66
101 -139 221 -139 227 0 4 -6 14 -14 22 -7 9 -26 41 -42 71 -16 30 -31 57 -34
60 -13 13 -191 360 -184 360 3 0 -5 15 -18 33 -13 17 -23 34 -22 37 1 3 -12
34 -28 70 -39 85 -139 322 -142 335 -2 6 -7 21 -13 35 -5 14 -22 61 -37 105
-16 44 -32 89 -37 100 -31 74 -157 524 -174 620 -2 11 -6 34 -10 50 -13 63
-54 304 -60 345 -4 40 -7 92 -6 127 1 35 -1 34 146 18z m5260 -2080 c99 -4
205 -9 235 -10 30 -2 107 -6 170 -9 154 -7 399 -21 442 -25 7 -1 18 -23 92
-191 24 -52 50 -112 59 -132 51 -114 115 -262 142 -328 13 -30 55 -129 95
-220 40 -91 72 -171 73 -177 0 -7 4 -13 8 -13 3 0 9 -10 12 -22 3 -13 27 -72
54 -133 27 -60 50 -114 52 -120 2 -5 15 -35 28 -65 14 -30 26 -61 26 -67 0 -7
4 -13 9 -13 4 0 8 -6 8 -14 0 -7 12 -40 26 -72 14 -33 29 -68 34 -79 4 -11 13
-33 19 -48 l11 -29 -82 6 c-46 4 -99 8 -118 11 -19 2 -64 6 -100 9 -36 3 -85
8 -110 10 -25 3 -72 8 -105 11 -59 6 -200 20 -300 31 -27 3 -61 7 -75 7 -28 2
-81 32 -78 45 1 7 -15 48 -53 129 -10 24 -19 46 -19 49 0 13 -164 339 -172
342 -4 2 -8 12 -8 23 0 10 -4 19 -10 19 -5 0 -10 4 -10 10 0 8 -86 158 -179
312 -93 156 -410 611 -451 648 -12 11 -90 109 -90 113 0 5 70 3 365 -8z
m-1772 -1165 c26 -54 47 -101 47 -104 0 -4 4 -12 10 -19 5 -7 42 -75 81 -152
75 -148 95 -179 152 -235 38 -37 47 -45 112 -99 38 -31 114 -96 163 -139 13
-11 41 -35 62 -52 21 -17 48 -39 58 -48 18 -16 78 -66 121 -102 10 -8 44 -37
75 -64 32 -27 69 -58 84 -70 15 -12 34 -28 42 -36 9 -8 35 -31 59 -50 24 -19
53 -44 65 -55 11 -11 35 -31 51 -43 17 -13 46 -38 65 -55 19 -18 60 -52 90
-77 51 -41 99 -83 139 -120 9 -8 38 -33 64 -54 28 -23 46 -45 43 -53 -4 -10
-90 -147 -102 -162 -2 -3 -43 26 -94 66 -158 125 -196 156 -198 164 -2 5 -8 9
-13 9 -6 0 -57 38 -114 85 -58 47 -107 85 -111 85 -4 0 -14 8 -23 18 -9 10
-56 49 -106 87 -49 38 -97 75 -105 82 -8 7 -33 27 -55 44 -58 45 -98 76 -189
149 -45 35 -85 68 -91 72 -251 199 -314 251 -310 258 3 5 1 11 -4 14 -5 3 -18
24 -29 45 -32 61 -46 84 -59 99 -7 7 -13 20 -13 28 0 8 -3 14 -7 14 -5 0 -13
10 -19 23 -15 33 -58 111 -64 117 -3 3 -14 23 -25 45 -11 21 -31 55 -43 75
-33 49 -25 84 42 181 31 44 56 83 56 87 0 8 32 42 39 42 3 -1 27 -45 54 -100z
m288 -107 c15 -17 105 -97 172 -153 16 -14 47 -41 68 -60 20 -19 63 -57 95
-85 31 -27 66 -59 78 -70 12 -11 52 -47 91 -80 38 -33 79 -69 90 -80 12 -11
57 -51 100 -90 43 -38 90 -81 104 -94 14 -13 48 -42 75 -65 26 -22 63 -54 81
-71 18 -16 72 -66 121 -110 49 -44 120 -110 157 -146 65 -62 68 -68 73 -119 5
-51 4 -53 -13 -39 -10 9 -67 56 -128 104 -60 49 -112 91 -115 94 -5 7 -51 45
-121 103 -24 20 -54 44 -66 55 -12 10 -36 29 -53 43 -18 14 -40 32 -49 41 -9
8 -43 37 -76 65 -33 27 -62 51 -65 54 -3 3 -77 66 -165 140 -88 74 -165 139
-171 145 -6 5 -35 30 -64 55 -122 102 -140 124 -183 209 -59 118 -79 171 -63
171 6 0 19 -8 27 -17z m1779 -822 c3 -3 30 -17 60 -31 30 -13 66 -32 80 -41
14 -9 42 -22 62 -28 21 -7 40 -16 43 -20 2 -5 46 -30 97 -56 119 -61 388 -214
411 -233 9 -8 17 -13 17 -10 0 7 198 -121 292 -189 37 -26 66 -52 65 -58 -2
-5 -23 -16 -48 -23 -24 -8 -53 -17 -64 -22 -19 -8 -165 -54 -175 -55 -21 -3
-151 -72 -182 -97 -91 -72 -114 -163 -63 -253 21 -39 98 -148 115 -165 18 -18
112 -163 130 -204 57 -121 -50 -111 -350 32 -41 20 -77 36 -80 37 -3 1 -27 12
-55 24 -104 48 -126 56 -182 66 -28 4 -33 2 -39 -19 -8 -35 31 -149 109 -316
70 -151 90 -195 91 -200 1 -3 11 -25 22 -50 50 -106 56 -124 57 -169 2 -41 -1
-46 -21 -49 -27 -4 -101 36 -241 132 -57 39 -111 76 -120 81 -9 6 -18 13 -21
16 -3 3 -27 20 -55 39 -27 19 -52 37 -55 41 -12 15 -410 276 -462 302 -120 60
-126 52 -93 -128 24 -133 26 -145 27 -203 1 -54 -7 -127 -18 -163 -3 -10 -6
-31 -9 -48 -5 -46 -43 -119 -63 -124 -29 -6 -70 21 -121 83 -43 52 -121 171
-121 186 0 3 -10 26 -22 52 -23 51 -98 257 -102 282 -5 33 -19 76 -29 88 -5 6
-7 12 -4 12 3 0 -1 24 -9 53 -41 148 -56 205 -60 232 -3 17 -7 35 -9 42 -5 14
94 168 169 263 51 65 65 80 78 80 8 0 213 -153 236 -177 24 -23 120 -84 140
-88 18 -3 39 13 99 80 10 12 61 86 114 165 100 151 104 162 86 245 -3 11 -8
43 -11 70 -12 80 -17 116 -22 139 -3 11 -7 38 -9 58 -4 37 -30 98 -46 108 -14
9 2 25 145 138 l138 110 37 -15 c20 -8 38 -18 41 -22z m-3125 -483 c17 -13 81
-62 111 -83 15 -11 33 -26 40 -32 7 -7 15 -13 18 -13 3 0 40 -26 83 -58 76
-56 119 -87 152 -107 9 -5 18 -12 21 -15 3 -3 32 -23 64 -44 33 -21 64 -43 70
-47 24 -20 87 -59 96 -59 4 0 10 -4 12 -8 3 -9 364 -242 374 -242 3 0 24 -13
47 -28 74 -50 427 -245 447 -247 3 0 21 -9 41 -21 23 -14 35 -29 36 -45 2 -29
11 -128 19 -219 3 -36 8 -90 9 -120 2 -30 6 -84 9 -120 28 -322 34 -436 27
-449 -4 -5 -21 -2 -41 8 -19 9 -60 27 -90 40 -69 29 -190 84 -353 160 -49 23
-90 41 -92 41 -2 0 -45 20 -97 44 -51 24 -103 46 -115 50 -13 4 -23 12 -23 18
0 6 -3 9 -6 6 -3 -4 -49 14 -102 39 -53 25 -144 68 -201 94 -57 27 -105 49
-107 49 -1 0 -58 26 -126 58 -68 32 -142 67 -166 77 -24 11 -75 35 -115 55
l-72 35 -1 50 c-3 108 -18 489 -29 730 -4 88 -8 226 -10 307 l-2 147 31 -22
c17 -12 36 -25 41 -29z"/>
<path d="M4251 8468 c-101 -18 -259 -85 -323 -136 -49 -39 -114 -110 -133
-145 -11 -20 -23 -37 -27 -37 -5 0 -8 -4 -8 -9 0 -5 -5 -22 -12 -38 -6 -15
-12 -30 -13 -33 -1 -3 -5 -12 -8 -20 -22 -54 -39 -157 -39 -240 0 -94 1 -107
22 -185 18 -65 25 -86 60 -158 20 -40 27 -53 74 -123 20 -30 155 -167 191
-194 36 -27 75 -50 79 -48 2 2 12 -4 22 -13 15 -14 169 -85 169 -79 0 1 20 -3
45 -10 151 -41 303 -24 450 51 66 33 86 48 154 115 66 65 88 93 112 135 10 19
22 36 25 39 13 11 67 138 84 195 9 33 21 69 25 80 16 43 11 189 -9 268 -23 89
-88 226 -132 277 -78 92 -165 170 -189 170 -6 0 -10 4 -10 8 0 5 -37 27 -82
50 -81 40 -157 65 -241 77 -67 11 -238 12 -286 3z m269 -327 c25 -7 59 -19 77
-27 17 -8 33 -14 37 -14 3 0 27 -14 53 -32 93 -61 167 -154 190 -239 11 -38
12 -155 2 -198 -25 -110 -125 -244 -203 -272 -20 -7 -36 -17 -36 -22 0 -4 -5
-5 -10 -2 -6 4 -17 2 -24 -4 -20 -17 -134 -19 -196 -4 -170 42 -304 161 -370
328 -28 68 -29 158 -4 244 35 123 119 210 239 246 48 15 183 12 245 -4z"/>
</g>
</svg>
